<?xml version="1.0" standalone="no"?>
<!DOCTYPE svg PUBLIC "-//W3C//DTD SVG 20010904//EN"
 "http://www.w3.org/TR/2001/REC-SVG-20010904/DTD/svg10.dtd">
<svg version="1.0" xmlns="http://www.w3.org/2000/svg"
 width="700.000000pt" height="700.000000pt" viewBox="0 0 700.000000 700.000000"
 preserveAspectRatio="xMidYMid meet">
<metadata>
Created by potrace 1.11, written by Peter Selinger 2001-2013
</metadata>
<g transform="translate(0.000000,700.000000) scale(0.100000,-0.100000)"
fill="#000000" stroke="none">
<path d="M3235 5791 c80 -312 100 -462 100 -741 0 -257 -8 -324 -57 -480 -68
-214 -181 -366 -326 -438 -73 -35 -81 -37 -176 -37 -95 0 -105 2 -177 36 -124
60 -247 190 -320 342 -13 26 -26 47 -30 47 -10 0 -123 -177 -162 -255 -70
-138 -119 -283 -148 -440 -22 -113 -16 -370 9 -492 25 -116 71 -251 114 -337
16 -32 27 -61 23 -64 -12 -13 -117 -1 -169 18 -75 28 -168 91 -244 164 l-65
61 7 -150 c10 -232 42 -405 113 -600 180 -500 582 -913 1080 -1108 120 -48
283 -92 409 -111 140 -22 154 -19 54 10 -275 81 -481 288 -566 569 -23 78 -27
108 -27 220 -1 154 15 227 77 360 40 85 151 240 181 251 7 3 33 -15 58 -40 61
-61 114 -86 179 -86 155 0 288 158 318 378 20 149 -19 317 -102 435 -18 25
-18 27 -2 27 32 0 187 -51 259 -86 334 -158 559 -454 643 -844 28 -131 46
-327 39 -435 -23 -352 -257 -646 -597 -750 l-85 -26 70 6 c235 19 537 122 768
262 416 250 730 678 851 1158 71 280 73 647 6 896 l-12 42 -55 -64 c-81 -92
-186 -192 -278 -264 -90 -70 -224 -160 -228 -154 -2 2 1 72 6 154 10 168 -4
499 -29 679 -67 497 -213 900 -440 1217 -80 112 -240 277 -349 362 -194 150
-375 238 -643 311 l-83 23 6 -26z"/>
</g>
</svg>
