<?xml version="1.0" standalone="no"?>
<!DOCTYPE svg PUBLIC "-//W3C//DTD SVG 20010904//EN"
 "http://www.w3.org/TR/2001/REC-SVG-20010904/DTD/svg10.dtd">
<svg version="1.0" xmlns="http://www.w3.org/2000/svg"
 width="702.000000pt" height="702.000000pt" viewBox="0 0 702.000000 702.000000"
 preserveAspectRatio="xMidYMid meet">
<metadata>
Created by potrace 1.11, written by Peter Selinger 2001-2013
</metadata>
<g transform="translate(0.000000,702.000000) scale(0.100000,-0.100000)"
fill="#000000" stroke="none">
<path d="M1905 7003 c-78 -41 -88 -66 -120 -300 -2 -15 -6 -44 -10 -63 -3 -19
-8 -48 -10 -63 -2 -16 -6 -40 -9 -55 -3 -15 -8 -44 -11 -64 -10 -74 -16 -113
-21 -138 -3 -14 -7 -38 -9 -55 -3 -32 -10 -73 -26 -167 -5 -32 -12 -76 -14
-99 -2 -23 -7 -49 -9 -58 -3 -9 -8 -36 -11 -61 -3 -25 -8 -56 -10 -70 -6 -30
-12 -69 -20 -130 -4 -25 -11 -67 -16 -93 -5 -26 -8 -51 -7 -55 1 -4 -1 -20 -5
-37 -4 -16 -9 -48 -12 -70 -2 -22 -7 -50 -9 -61 -4 -21 -6 -33 -27 -164 -5
-36 -12 -76 -14 -90 -6 -36 -15 -102 -20 -146 -3 -22 -7 -46 -10 -54 -4 -15
-7 -31 -20 -120 -4 -25 -9 -58 -11 -75 -3 -16 -7 -41 -9 -55 -2 -14 -6 -38 -9
-55 -2 -16 -8 -50 -11 -75 -6 -47 -10 -73 -20 -130 -3 -19 -8 -46 -10 -60 -9
-62 -18 -117 -21 -135 -2 -11 -7 -40 -10 -65 -6 -50 -11 -83 -19 -120 -3 -14
-8 -45 -11 -70 -3 -25 -7 -56 -10 -70 -2 -14 -7 -41 -10 -60 -3 -19 -16 -105
-30 -190 -14 -85 -27 -171 -29 -190 -3 -19 -7 -46 -10 -60 -3 -14 -7 -45 -10
-70 -3 -25 -8 -56 -11 -70 -2 -14 -6 -36 -9 -49 -2 -12 -7 -44 -10 -70 -4 -25
-9 -57 -11 -71 -3 -14 -7 -41 -9 -60 -2 -19 -7 -51 -11 -70 -4 -19 -8 -42 -9
-50 -1 -8 -5 -39 -9 -69 -4 -30 -10 -63 -12 -75 -3 -12 -7 -37 -9 -56 -2 -19
-7 -51 -11 -70 -4 -19 -8 -42 -9 -50 -2 -17 -13 -93 -20 -131 -2 -13 -6 -42
-10 -64 -3 -22 -10 -65 -15 -95 -5 -30 -12 -75 -15 -100 -3 -25 -10 -67 -15
-95 -5 -27 -11 -68 -14 -90 -3 -22 -8 -53 -11 -70 -4 -16 -8 -43 -10 -60 -7
-52 -15 -109 -20 -135 -5 -27 -11 -63 -20 -125 -3 -23 -7 -50 -9 -62 -3 -11
-7 -38 -11 -59 -3 -22 -8 -52 -11 -67 -7 -40 -11 -37 223 -163 23 -12 95 -53
160 -90 65 -37 137 -78 161 -91 90 -50 139 -77 202 -111 36 -20 87 -48 113
-64 26 -15 52 -28 57 -28 4 0 10 -3 12 -7 2 -5 19 -16 38 -27 78 -41 157 -85
190 -105 19 -11 42 -24 50 -27 8 -4 44 -24 80 -44 63 -36 115 -65 210 -118 25
-13 49 -28 55 -33 5 -5 17 -9 27 -9 10 0 18 -3 18 -8 0 -4 21 -18 48 -31 26
-14 55 -31 65 -39 9 -9 17 -11 17 -6 0 5 4 4 8 -2 4 -5 36 -26 72 -46 146 -80
187 -102 220 -121 303 -172 346 -193 440 -214 25 -5 138 -5 147 0 4 3 25 8 46
11 20 3 45 10 55 15 9 5 40 21 68 34 27 14 68 35 90 48 21 12 59 33 84 47 156
87 293 163 345 192 33 18 110 61 170 95 123 69 186 105 260 145 90 49 148 82
243 136 52 30 97 54 102 54 5 0 10 3 12 8 2 4 26 18 53 31 28 14 69 37 93 53
24 15 45 28 48 28 3 0 62 32 132 71 70 40 152 85 182 102 30 16 69 38 85 47
17 10 55 31 85 48 31 16 118 64 195 107 77 43 141 79 142 79 1 1 -35 232 -52
326 -3 19 -8 44 -10 55 -2 11 -6 43 -9 70 -4 28 -8 57 -11 65 -2 8 -7 31 -9
50 -3 19 -10 64 -16 100 -6 36 -13 81 -16 100 -2 19 -9 60 -14 90 -5 30 -11
69 -14 85 -3 17 -14 84 -25 150 -11 66 -22 138 -26 160 -3 23 -7 50 -9 62 -3
11 -7 38 -11 59 -3 22 -8 53 -11 69 -3 17 -7 41 -9 55 -3 22 -12 78 -31 195
-2 17 -9 56 -15 88 -5 32 -12 74 -15 95 -2 20 -6 44 -9 52 -2 8 -7 35 -10 60
-3 25 -10 70 -15 100 -5 30 -12 71 -15 90 -3 19 -7 46 -10 60 -2 14 -7 41 -9
60 -3 19 -8 46 -11 60 -3 14 -7 47 -10 73 -3 27 -7 52 -10 57 -3 4 -7 27 -10
51 -8 66 -12 89 -23 154 -6 33 -13 76 -16 95 -3 19 -8 46 -11 60 -3 14 -8 45
-11 70 -14 104 -23 161 -28 169 -2 3 -7 31 -10 62 -4 31 -8 66 -11 77 -2 11
-6 35 -9 53 -43 269 -53 328 -61 369 -3 14 -8 50 -11 80 -3 30 -7 58 -10 61
-2 3 -6 26 -9 50 -3 24 -9 67 -15 94 -5 28 -12 68 -15 90 -12 83 -17 100 -37
133 -23 37 -86 71 -131 72 -15 0 -42 -6 -60 -14 -19 -7 -212 -194 -462 -444
-236 -238 -432 -432 -435 -432 -3 0 -10 10 -16 23 -5 12 -42 83 -81 157 -40
75 -84 160 -100 190 -15 30 -31 57 -36 58 -4 2 -5 7 -2 12 3 5 -2 16 -11 24
-8 9 -12 16 -8 16 3 0 2 6 -4 13 -5 6 -36 62 -67 122 -32 61 -75 142 -95 180
-21 39 -70 133 -110 210 -134 258 -147 276 -207 296 -76 25 -137 -6 -180 -91
-15 -30 -30 -57 -33 -60 -3 -3 -26 -45 -51 -95 -82 -157 -190 -368 -227 -438
l-35 -67 -40 72 c-21 40 -66 125 -100 188 -33 63 -73 138 -88 165 -15 28 -52
97 -82 155 -31 58 -68 128 -84 157 -15 29 -48 90 -72 135 -61 117 -122 231
-169 319 -93 172 -154 287 -175 329 -12 25 -24 47 -27 50 -3 3 -18 31 -34 64
-60 120 -153 166 -241 119z"/>
</g>
</svg>
