<?xml version="1.0" encoding="utf-8"?>
<svg xmlns="http://www.w3.org/2000/svg" xmlns:xlink="http://www.w3.org/1999/xlink" width="256px" height="351px" viewBox="0 0 256 351" version="1.1">
  <defs>
    <path d="M1.25273437 280.731641L2.85834533 277.600858 102.211177 89.0833546 58.0613266 5.6082033C54.3920011-1.28304578 45.0741245 0.473674398 43.8699203 8.18789086L1.25273437 280.731641Z" id="path-1"/>
    <filter x="-50%" y="-50%" width="200%" height="200%" id="filter-2">
      <feGaussianBlur stdDeviation="17.5" in="SourceAlpha" result="shadowBlurInner1"/>
      <feOffset dx="0" dy="0" in="shadowBlurInner1" result="shadowOffsetInner1"/>
      <feComposite in="shadowOffsetInner1" in2="SourceAlpha" operator="arithmetic" k2="-1" k3="1" result="shadowInnerInner1"/>
      <feColorMatrix values="0 0 0 0 0   0 0 0 0 0   0 0 0 0 0  0 0 0 0.06 0" type="matrix" in="shadowInnerInner1"/>
    </filter>
    <path d="M134.417103 148.974235L166.455722 116.161738 134.417104 55.1546874C131.374828 49.3635911 123.983911 48.7568362 120.973828 54.5646483L103.26875 88.6738296 102.739423 90.4175473 134.417103 148.974235Z" id="path-3"/>
    <filter x="-50%" y="-50%" width="200%" height="200%" id="filter-4">
      <feGaussianBlur stdDeviation="3.5" in="SourceAlpha" result="shadowBlurInner1"/>
      <feOffset dx="1" dy="-9" in="shadowBlurInner1" result="shadowOffsetInner1"/>
      <feComposite in="shadowOffsetInner1" in2="SourceAlpha" operator="arithmetic" k2="-1" k3="1" result="shadowInnerInner1"/>
      <feColorMatrix values="0 0 0 0 0   0 0 0 0 0   0 0 0 0 0  0 0 0 0.09 0" type="matrix" in="shadowInnerInner1"/>
    </filter>
  </defs>
  <path d="M0 282.99762L2.12250746 280.0256 102.527363 89.5119284 102.739423 87.4951323 58.478806 4.35817711C54.7706269-2.60604179 44.3313035-0.845245771 43.1143483 6.95065473L0 282.99762Z" fill="#DB450D"/>
  <use fill="#DB450D" fill-rule="evenodd" xlink:href="#path-1"/>
  <use fill="black" fill-opacity="1" filter="url(#filter-2)" xlink:href="#path-1"/>
  <use fill="#DB450D" fill-rule="evenodd" xlink:href="#path-3"/>
  <use fill="black" fill-opacity="1" filter="url(#filter-4)" xlink:href="#path-3"/>
  <polygon fill="#B13101" points="0 282.99762 0.962097168 282.030396 4.45771144 280.60956 132.935323 152.60956 134.563025 148.178595 102.513123 87.1048584"/>
  <path d="M139.120971 347.551268L255.395916 282.703666 222.191698 78.2093373C221.153051 71.8112478 213.303658 69.2818149 208.724314 73.8694368L0.000254726368 282.997875 115.608454 347.545536C122.914643 351.624979 131.812872 351.62689 139.120971 347.551268M254.354084 282.159837L221.401937 79.2179369C220.371175 72.8684188 213.843792 70.2409553 209.299213 74.79375L1.28945312 282.600785 115.627825 346.509458C122.878548 350.557931 131.709226 350.559827 138.961846 346.515146L254.354084 282.159837Z" fill="#F36A38"/>
</svg>
