<?xml version="1.0" encoding="UTF-8"?>
<svg width="223px" height="67px" viewBox="0 0 223 67" version="1.1" xmlns="http://www.w3.org/2000/svg" xmlns:xlink="http://www.w3.org/1999/xlink">
    <!-- Generator: Sketch 45.1 (43504) - http://www.bohemiancoding.com/sketch -->
    <title>logo</title>
    <desc>Created with Sketch.</desc>
    <defs>
        <polygon id="path-1" points="0 66.4621 222.909 66.4621 222.909 0.0001 0 0.0001"></polygon>
    </defs>
    <g id="Page-1" stroke="none" stroke-width="1" fill="none" fill-rule="evenodd">
        <g id="总览" transform="translate(-774.000000, -515.000000)">
            <g id="logo" transform="translate(774.000000, 515.000000)">
                <path d="M80.9505,63.0251 L79.1055,56.5111 L79.5955,56.5111 L80.9505,61.4441 C81.0505,61.8451 81.1385,62.1721 81.2145,62.4221 C81.2645,62.1971 81.3515,61.8831 81.4775,61.4811 L83.0595,56.5111 L83.5485,56.5111 L84.9045,61.4441 C85.0295,61.8451 85.1045,62.1721 85.1295,62.4221 L85.1675,62.4221 C85.2175,62.1721 85.3185,61.8451 85.4695,61.4441 C85.4935,61.2931 85.5445,61.1041 85.6195,60.8791 L87.0125,56.5111 L87.5025,56.5111 L85.3565,63.0251 L84.9045,63.0251 L83.8495,59.2971 C83.6735,58.7461 83.5615,58.3181 83.5115,58.0171 C83.4105,57.6661 83.3355,57.3521 83.2855,57.0761 C83.2345,57.3521 83.1465,57.6661 83.0215,58.0171 L81.4025,63.0251 L80.9505,63.0251 Z" id="Fill-1" fill="#4C4948"></path>
                <mask id="mask-2" fill="white">
                    <use xlink:href="#path-1"></use>
                </mask>
                <g id="Clip-4"></g>
                <polygon id="Fill-3" fill="#4C4948" mask="url(#mask-2)" points="88.609 63.0251 89.061 63.0251 89.061 58.3931 88.609 58.3931"></polygon>
                <polygon id="Fill-5" fill="#4C4948" mask="url(#mask-2)" points="91.034 63.0251 91.486 63.0251 91.486 56.1341 91.034 56.1341"></polygon>
                <path d="M97.0735,60.2761 C97.0735,60.1011 97.0605,59.9371 97.0355,59.7871 C96.9095,59.4611 96.7095,59.1971 96.4335,58.9961 C96.1325,58.7701 95.7675,58.6571 95.3415,58.6571 C94.7895,58.6571 94.3495,58.8581 94.0235,59.2591 C93.6715,59.6361 93.4965,60.1381 93.4965,60.7661 C93.4965,61.3181 93.6465,61.7831 93.9485,62.1591 C94.2745,62.5611 94.7385,62.7611 95.3415,62.7611 C95.7425,62.7611 96.0945,62.6361 96.3955,62.3841 C96.7215,62.1591 96.9355,61.8581 97.0355,61.4811 C97.0605,61.3561 97.0735,61.2171 97.0735,61.0671 L97.0735,60.2761 Z M97.5635,56.1341 L97.5635,61.8951 C97.5635,62.3231 97.5755,62.6991 97.6005,63.0251 L97.1485,63.0251 L97.1485,62.0461 L97.1115,62.0461 C96.9605,62.3731 96.7345,62.6241 96.4335,62.7991 C96.1065,63.0251 95.7055,63.1381 95.2285,63.1381 C94.6005,63.1381 94.0735,62.9121 93.6465,62.4611 C93.2195,62.0081 93.0065,61.4571 93.0065,60.8031 C93.0065,60.0761 93.2325,59.4731 93.6845,58.9961 C94.1365,58.5191 94.6885,58.2811 95.3415,58.2811 C95.7935,58.2811 96.1695,58.3811 96.4705,58.5821 C96.7465,58.7331 96.9475,58.9331 97.0735,59.1841 L97.0735,56.1341 L97.5635,56.1341 Z" id="Fill-6" fill="#4C4948" mask="url(#mask-2)"></path>
                <path d="M103.1133,60.2761 C103.1133,60.1011 103.1003,59.9371 103.0753,59.7871 C102.9493,59.4611 102.7493,59.1971 102.4733,58.9961 C102.1723,58.7701 101.8073,58.6571 101.3813,58.6571 C100.8293,58.6571 100.3893,58.8581 100.0633,59.2591 C99.7113,59.6361 99.5363,60.1381 99.5363,60.7661 C99.5363,61.3181 99.6863,61.7831 99.9883,62.1591 C100.3143,62.5611 100.7783,62.7611 101.3813,62.7611 C101.7823,62.7611 102.1343,62.6361 102.4353,62.3841 C102.7613,62.1591 102.9753,61.8581 103.0753,61.4811 C103.1003,61.3561 103.1133,61.2171 103.1133,61.0671 L103.1133,60.2761 Z M103.6033,56.1341 L103.6033,61.8951 C103.6033,62.3231 103.6153,62.6991 103.6403,63.0251 L103.1883,63.0251 L103.1883,62.0461 L103.1513,62.0461 C103.0003,62.3731 102.7743,62.6241 102.4733,62.7991 C102.1463,63.0251 101.7453,63.1381 101.2683,63.1381 C100.6403,63.1381 100.1133,62.9121 99.6863,62.4611 C99.2593,62.0081 99.0463,61.4571 99.0463,60.8031 C99.0463,60.0761 99.2723,59.4731 99.7243,58.9961 C100.1763,58.5191 100.7283,58.2811 101.3813,58.2811 C101.8333,58.2811 102.2093,58.3811 102.5103,58.5821 C102.7863,58.7331 102.9873,58.9331 103.1133,59.1841 L103.1133,56.1341 L103.6033,56.1341 Z" id="Fill-7" fill="#4C4948" mask="url(#mask-2)"></path>
                <path d="M108.8892,62.197 C109.2902,61.82 109.4922,61.318 109.4922,60.69 C109.4922,60.188 109.3282,59.737 109.0022,59.335 C108.6502,58.884 108.1602,58.657 107.5342,58.657 C106.9062,58.657 106.4162,58.871 106.0652,59.298 C105.7392,59.674 105.5762,60.151 105.5762,60.728 C105.5762,61.356 105.7642,61.858 106.1402,62.234 C106.5172,62.587 106.9692,62.761 107.4962,62.761 C108.0482,62.761 108.5122,62.573 108.8892,62.197 M105.7642,62.461 C105.3122,62.009 105.0862,61.444 105.0862,60.766 C105.0862,60.012 105.3372,59.398 105.8392,58.921 C106.2912,58.494 106.8562,58.281 107.5342,58.281 C108.2612,58.281 108.8512,58.507 109.3032,58.959 C109.7302,59.411 109.9432,59.975 109.9432,60.653 C109.9432,61.08 109.8682,61.457 109.7172,61.783 C109.5922,62.084 109.4032,62.335 109.1522,62.536 C108.6762,62.937 108.1112,63.138 107.4582,63.138 C106.7802,63.138 106.2162,62.912 105.7642,62.461" id="Fill-8" fill="#4C4948" mask="url(#mask-2)"></path>
                <path d="M115.0794,60.2761 C115.0794,60.0761 115.0544,59.9131 115.0044,59.7871 C114.9034,59.4611 114.7154,59.1971 114.4394,58.9961 C114.1384,58.7701 113.7864,58.6571 113.3844,58.6571 C112.8074,58.6571 112.3554,58.8451 112.0294,59.2221 C111.6774,59.5981 111.5024,60.1011 111.5024,60.7281 C111.5024,61.2311 111.6524,61.6571 111.9544,62.0081 C112.2804,62.4351 112.7444,62.6481 113.3474,62.6481 C114.1504,62.6481 114.6904,62.2721 114.9664,61.5191 C115.0414,61.3691 115.0794,61.2061 115.0794,61.0291 L115.0794,60.2761 Z M115.5694,62.3471 C115.5694,62.8751 115.4934,63.3261 115.3434,63.7031 C115.2424,64.0291 115.0794,64.2931 114.8534,64.4941 C114.6274,64.6941 114.3384,64.8441 113.9874,64.9451 C113.7114,65.0201 113.4224,65.0581 113.1214,65.0581 C112.7954,65.0581 112.4934,65.0201 112.2174,64.9451 C111.8914,64.8701 111.6404,64.7561 111.4644,64.6061 L111.6154,64.2301 C111.8414,64.3801 112.0674,64.4941 112.2934,64.5691 C112.5694,64.6441 112.8704,64.6811 113.1964,64.6811 C113.7734,64.6811 114.2254,64.5311 114.5524,64.2301 C114.9034,63.9031 115.0794,63.4011 115.0794,62.7241 L115.0794,62.0461 C114.9034,62.3231 114.6774,62.5481 114.4014,62.7241 C114.0754,62.9241 113.6864,63.0251 113.2344,63.0251 C112.5814,63.0251 112.0414,62.7991 111.6154,62.3471 C111.2134,61.8951 111.0124,61.3691 111.0124,60.7661 C111.0124,60.0121 111.2514,59.4111 111.7284,58.9591 C112.1804,58.5061 112.7074,58.2811 113.3094,58.2811 C113.7864,58.2811 114.1884,58.3811 114.5144,58.5821 C114.7904,58.7571 114.9914,58.9841 115.1174,59.2591 L115.1544,58.3931 L115.6064,58.3931 C115.5814,58.7201 115.5694,59.0961 115.5694,59.5231 L115.5694,62.3471 Z" id="Fill-9" fill="#4C4948" mask="url(#mask-2)"></path>
                <path d="M125.3887,62.7615 C125.1877,62.8625 124.9237,62.9495 124.5977,63.0255 C124.1957,63.1005 123.7817,63.1385 123.3557,63.1385 C122.4007,63.1385 121.6107,62.8625 120.9827,62.3095 C120.6567,62.0335 120.3937,61.6955 120.1927,61.2925 C120.0167,60.8415 119.9287,60.3395 119.9287,59.7865 C119.9287,58.8835 120.2427,58.1175 120.8697,57.4905 C121.1717,57.1385 121.5477,56.8755 121.9997,56.6995 C122.4767,56.4985 123.0167,56.3985 123.6187,56.3985 C124.0457,56.3985 124.4347,56.4495 124.7857,56.5485 C124.9117,56.5745 125.0247,56.6125 125.1257,56.6615 L125.3507,56.7375 L125.2007,57.1515 C124.7737,56.9255 124.2587,56.8125 123.6567,56.8125 C122.6267,56.8125 121.8237,57.1015 121.2467,57.6785 C120.6947,58.2055 120.4187,58.9335 120.4187,59.8625 C120.4187,60.6905 120.6817,61.3685 121.2097,61.8955 C121.7607,62.4485 122.5267,62.7245 123.5057,62.7245 C124.2087,62.7245 124.7857,62.6115 125.2377,62.3845 L125.3887,62.7615 Z" id="Fill-10" fill="#4C4948" mask="url(#mask-2)"></path>
                <path d="M130.1856,62.197 C130.5866,61.82 130.7886,61.318 130.7886,60.69 C130.7886,60.188 130.6246,59.737 130.2986,59.335 C129.9466,58.884 129.4566,58.657 128.8306,58.657 C128.2026,58.657 127.7126,58.871 127.3616,59.298 C127.0356,59.674 126.8726,60.151 126.8726,60.728 C126.8726,61.356 127.0606,61.858 127.4366,62.234 C127.8136,62.587 128.2656,62.761 128.7926,62.761 C129.3446,62.761 129.8086,62.573 130.1856,62.197 M127.0606,62.461 C126.6086,62.009 126.3826,61.444 126.3826,60.766 C126.3826,60.012 126.6336,59.398 127.1356,58.921 C127.5876,58.494 128.1526,58.281 128.8306,58.281 C129.5576,58.281 130.1476,58.507 130.5996,58.959 C131.0266,59.411 131.2396,59.975 131.2396,60.653 C131.2396,61.08 131.1646,61.457 131.0136,61.783 C130.8886,62.084 130.6996,62.335 130.4486,62.536 C129.9726,62.937 129.4076,63.138 128.7546,63.138 C128.0766,63.138 127.5126,62.912 127.0606,62.461" id="Fill-11" fill="#4C4948" mask="url(#mask-2)"></path>
                <path d="M132.761,59.5232 C132.761,59.0962 132.748,58.7202 132.723,58.3932 L133.137,58.3932 L133.175,59.2972 L133.213,59.2972 C133.388,58.9712 133.602,58.7332 133.853,58.5822 C134.129,58.3812 134.468,58.2812 134.87,58.2812 C135.221,58.2812 135.534,58.3932 135.811,58.6202 C136.037,58.8212 136.212,59.0722 136.338,59.3732 C136.463,59.1222 136.626,58.9092 136.828,58.7332 C137.179,58.4312 137.605,58.2812 138.108,58.2812 C138.233,58.2812 138.371,58.3062 138.522,58.3562 C138.748,58.4072 138.936,58.5062 139.087,58.6572 C139.287,58.8082 139.438,59.0212 139.539,59.2972 C139.689,59.5982 139.764,59.9752 139.764,60.4272 L139.764,63.0252 L139.275,63.0252 L139.275,60.4642 C139.275,59.2852 138.823,58.6952 137.919,58.6952 C137.618,58.6952 137.342,58.7832 137.091,58.9592 C136.865,59.1342 136.689,59.3602 136.564,59.6362 L136.526,59.7112 L136.526,59.8252 C136.501,59.9252 136.489,60.0122 136.489,60.0882 L136.489,63.0252 L135.999,63.0252 L135.999,60.2012 C135.999,59.1972 135.585,58.6952 134.757,58.6952 C134.405,58.6952 134.091,58.8082 133.815,59.0342 C133.589,59.2352 133.413,59.4732 133.288,59.7492 C133.238,59.9002 133.213,60.0502 133.213,60.2012 L133.213,63.0252 L132.761,63.0252 L132.761,59.5232 Z" id="Fill-12" fill="#4C4948" mask="url(#mask-2)"></path>
                <path d="M141.6624,59.5232 C141.6624,59.0962 141.6494,58.7202 141.6244,58.3932 L142.0384,58.3932 L142.0764,59.2972 L142.1144,59.2972 C142.2894,58.9712 142.5024,58.7332 142.7544,58.5822 C143.0304,58.3812 143.3694,58.2812 143.7704,58.2812 C144.1224,58.2812 144.4354,58.3932 144.7124,58.6202 C144.9384,58.8212 145.1134,59.0722 145.2394,59.3732 C145.3644,59.1222 145.5274,58.9092 145.7284,58.7332 C146.0794,58.4312 146.5064,58.2812 147.0094,58.2812 C147.1344,58.2812 147.2724,58.3062 147.4234,58.3562 C147.6494,58.4072 147.8374,58.5062 147.9874,58.6572 C148.1884,58.8082 148.3394,59.0212 148.4394,59.2972 C148.5904,59.5982 148.6654,59.9752 148.6654,60.4272 L148.6654,63.0252 L148.1764,63.0252 L148.1764,60.4642 C148.1764,59.2852 147.7244,58.6952 146.8204,58.6952 C146.5194,58.6952 146.2434,58.7832 145.9924,58.9592 C145.7664,59.1342 145.5904,59.3602 145.4654,59.6362 L145.4274,59.7112 L145.4274,59.8252 C145.4024,59.9252 145.3904,60.0122 145.3904,60.0882 L145.3904,63.0252 L144.9004,63.0252 L144.9004,60.2012 C144.9004,59.1972 144.4864,58.6952 143.6584,58.6952 C143.3064,58.6952 142.9924,58.8082 142.7164,59.0342 C142.4904,59.2352 142.3144,59.4732 142.1894,59.7492 C142.1384,59.9002 142.1144,60.0502 142.1144,60.2012 L142.1144,63.0252 L141.6624,63.0252 L141.6624,59.5232 Z" id="Fill-13" fill="#4C4948" mask="url(#mask-2)"></path>
                <path d="M154.4793,61.8953 C154.4793,62.3233 154.5043,62.6993 154.5543,63.0253 L154.1033,63.0253 L154.0653,62.0833 L154.0273,62.0833 C153.8773,62.3843 153.6633,62.6243 153.3873,62.7993 C153.0613,63.0253 152.6843,63.1383 152.2583,63.1383 C152.0823,63.1383 151.9193,63.1243 151.7683,63.1003 C151.5423,63.0253 151.3413,62.9243 151.1663,62.7993 C150.9643,62.6483 150.8143,62.4353 150.7143,62.1593 C150.5633,61.8333 150.4883,61.4443 150.4883,60.9923 L150.4883,58.3933 L150.9773,58.3933 L150.9773,60.8783 C150.9773,61.4573 151.0773,61.8953 151.2793,62.1973 C151.5053,62.5483 151.8683,62.7243 152.3703,62.7243 C153.0983,62.7243 153.6133,62.3983 153.9143,61.7453 C153.9893,61.5443 154.0273,61.3693 154.0273,61.2173 L154.0273,58.3933 L154.4793,58.3933 L154.4793,61.8953 Z" id="Fill-14" fill="#4C4948" mask="url(#mask-2)"></path>
                <path d="M156.4524,59.5232 C156.4524,59.0962 156.4394,58.7202 156.4144,58.3932 L156.8284,58.3932 L156.8664,59.3352 L156.9044,59.3352 C157.0544,59.0342 157.2804,58.7832 157.5814,58.5822 C157.9074,58.3812 158.2724,58.2812 158.6734,58.2812 C158.8244,58.2812 158.9754,58.3062 159.1254,58.3562 C159.3514,58.4072 159.5524,58.4942 159.7284,58.6202 C159.9534,58.7702 160.1294,58.9842 160.2554,59.2592 C160.4054,59.5612 160.4814,59.9372 160.4814,60.3892 L160.4814,63.0252 L160.0294,63.0252 L160.0294,60.3892 C160.0294,59.8872 159.9164,59.4862 159.6904,59.1842 C159.4394,58.8582 159.0624,58.6952 158.5604,58.6952 C158.2094,58.6952 157.8834,58.8082 157.5814,59.0342 C157.2804,59.2352 157.0794,59.4862 156.9794,59.7872 C156.9284,59.9372 156.9044,60.0762 156.9044,60.2012 L156.9044,63.0252 L156.4524,63.0252 L156.4524,59.5232 Z" id="Fill-15" fill="#4C4948" mask="url(#mask-2)"></path>
                <polygon id="Fill-16" fill="#4C4948" mask="url(#mask-2)" points="162.379 63.0251 162.831 63.0251 162.831 58.3931 162.379 58.3931"></polygon>
                <path d="M168.3431,62.7995 C168.3181,62.8245 168.2921,62.8365 168.2681,62.8365 L168.1551,62.9115 C168.0291,62.9375 167.9041,62.9625 167.7781,62.9865 C167.4771,63.0875 167.1511,63.1385 166.7991,63.1385 C166.0711,63.1385 165.4811,62.9115 165.0301,62.4605 C164.5781,62.0085 164.3521,61.4445 164.3521,60.7665 C164.3521,60.0125 164.6031,59.4105 165.1051,58.9585 C165.6071,58.5065 166.2341,58.2805 166.9881,58.2805 C167.2891,58.2805 167.5771,58.3185 167.8541,58.3935 C168.1041,58.4445 168.2801,58.5195 168.3811,58.6195 L168.2301,58.9955 C168.0541,58.8965 167.8781,58.8205 167.7031,58.7705 C167.4771,58.7205 167.2261,58.6955 166.9501,58.6955 C166.2721,58.6955 165.7451,58.8965 165.3681,59.2975 C165.0171,59.6735 164.8411,60.1515 164.8411,60.7285 C164.8411,61.3305 165.0301,61.8085 165.4061,62.1585 C165.7821,62.5355 166.2721,62.7245 166.8741,62.7245 C167.1511,62.7245 167.4261,62.6865 167.7031,62.6115 C167.7781,62.5865 167.8781,62.5615 168.0041,62.5355 L168.2301,62.4225 L168.3431,62.7995 Z" id="Fill-17" fill="#4C4948" mask="url(#mask-2)"></path>
                <path d="M172.5,60.5398 C172.148,60.5398 171.834,60.5528 171.559,60.5778 C171.232,60.6028 170.956,60.6658 170.73,60.7668 C170.153,60.9678 169.864,61.3068 169.864,61.7828 C169.864,62.1088 169.964,62.3478 170.166,62.4978 C170.341,62.6738 170.58,62.7618 170.881,62.7618 C171.282,62.7618 171.634,62.6478 171.935,62.4228 C172.161,62.2718 172.324,62.0708 172.425,61.8198 C172.475,61.7208 172.5,61.6318 172.5,61.5568 L172.5,60.5398 Z M172.952,61.8948 C172.952,62.3228 172.99,62.6988 173.065,63.0248 L172.613,63.0248 L172.538,62.3098 L172.5,62.3098 C172.374,62.5358 172.174,62.7248 171.897,62.8748 C171.571,63.0498 171.22,63.1388 170.843,63.1388 C170.366,63.1388 169.99,63.0008 169.714,62.7248 C169.488,62.4738 169.375,62.1848 169.375,61.8578 C169.375,61.3308 169.625,60.9168 170.128,60.6148 C170.655,60.2898 171.446,60.1388 172.5,60.1638 L172.5,60.0508 C172.5,59.9258 172.487,59.7998 172.462,59.6738 C172.437,59.5228 172.387,59.3728 172.312,59.2228 C172.211,59.0468 172.073,58.9208 171.897,58.8458 C171.721,58.7458 171.483,58.6948 171.182,58.6948 C170.655,58.6948 170.216,58.8208 169.864,59.0718 L169.714,58.7328 C169.94,58.5818 170.203,58.4698 170.504,58.3938 C170.73,58.3178 170.969,58.2808 171.22,58.2808 C171.596,58.2808 171.91,58.3438 172.161,58.4698 C172.387,58.5958 172.562,58.7578 172.688,58.9588 C172.788,59.1598 172.864,59.3728 172.914,59.5988 C172.939,59.7998 172.952,60.0128 172.952,60.2388 L172.952,61.8948 Z" id="Fill-18" fill="#4C4948" mask="url(#mask-2)"></path>
                <path d="M175.4898,57.3767 L175.4898,58.3937 L176.9588,58.3937 L176.9588,58.7707 L175.4898,58.7707 L175.4898,61.7447 C175.4898,62.3977 175.7408,62.7247 176.2428,62.7247 C176.4938,62.7247 176.6948,62.6987 176.8448,62.6477 L176.9208,63.0247 C176.6948,63.1007 176.4558,63.1387 176.2048,63.1387 C175.8288,63.1387 175.5398,63.0247 175.3388,62.7997 C175.1378,62.5727 175.0378,62.1967 175.0378,61.6697 L175.0378,58.7707 L174.1718,58.7707 L174.1718,58.3937 L175.0378,58.3937 L175.0378,57.5277 L175.4898,57.3767 Z" id="Fill-19" fill="#4C4948" mask="url(#mask-2)"></path>
                <polygon id="Fill-20" fill="#4C4948" mask="url(#mask-2)" points="178.367 63.0251 178.819 63.0251 178.819 58.3931 178.367 58.3931"></polygon>
                <path d="M184.1426,62.197 C184.5436,61.82 184.7446,61.318 184.7446,60.69 C184.7446,60.188 184.5816,59.737 184.2556,59.335 C183.9036,58.884 183.4136,58.657 182.7866,58.657 C182.1586,58.657 181.6696,58.871 181.3186,59.298 C180.9916,59.674 180.8286,60.151 180.8286,60.728 C180.8286,61.356 181.0176,61.858 181.3936,62.234 C181.7706,62.587 182.2226,62.761 182.7496,62.761 C183.3006,62.761 183.7656,62.573 184.1426,62.197 M181.0176,62.461 C180.5656,62.009 180.3396,61.444 180.3396,60.766 C180.3396,60.012 180.5906,59.398 181.0926,58.921 C181.5446,58.494 182.1096,58.281 182.7866,58.281 C183.5146,58.281 184.1046,58.507 184.5566,58.959 C184.9826,59.411 185.1966,59.975 185.1966,60.653 C185.1966,61.08 185.1216,61.457 184.9706,61.783 C184.8446,62.084 184.6566,62.335 184.4056,62.536 C183.9286,62.937 183.3636,63.138 182.7116,63.138 C182.0336,63.138 181.4686,62.912 181.0176,62.461" id="Fill-21" fill="#4C4948" mask="url(#mask-2)"></path>
                <path d="M186.7178,59.5232 C186.7178,59.0962 186.7048,58.7202 186.6798,58.3932 L187.0938,58.3932 L187.1318,59.3352 L187.1698,59.3352 C187.3208,59.0342 187.5458,58.7832 187.8478,58.5822 C188.1738,58.3812 188.5378,58.2812 188.9398,58.2812 C189.0898,58.2812 189.2408,58.3062 189.3908,58.3562 C189.6168,58.4072 189.8178,58.4942 189.9938,58.6202 C190.2198,58.7702 190.3948,58.9842 190.5208,59.2592 C190.6718,59.5612 190.7468,59.9372 190.7468,60.3892 L190.7468,63.0252 L190.2948,63.0252 L190.2948,60.3892 C190.2948,59.8872 190.1818,59.4862 189.9558,59.1842 C189.7048,58.8582 189.3288,58.6952 188.8268,58.6952 C188.4748,58.6952 188.1488,58.8082 187.8478,59.0342 C187.5458,59.2352 187.3448,59.4862 187.2448,59.7872 C187.1948,59.9372 187.1698,60.0762 187.1698,60.2012 L187.1698,63.0252 L186.7178,63.0252 L186.7178,59.5232 Z" id="Fill-22" fill="#4C4948" mask="url(#mask-2)"></path>
                <path d="M200.5289,62.7615 C200.3279,62.8625 200.0639,62.9495 199.7379,63.0255 C199.3359,63.1005 198.9219,63.1385 198.4959,63.1385 C197.5409,63.1385 196.7509,62.8625 196.1239,62.3095 C195.7969,62.0335 195.5339,61.6955 195.3329,61.2925 C195.1569,60.8415 195.0689,60.3395 195.0689,59.7865 C195.0689,58.8835 195.3829,58.1175 196.0109,57.4905 C196.3119,57.1385 196.6879,56.8755 197.1399,56.6995 C197.6169,56.4985 198.1569,56.3985 198.7589,56.3985 C199.1859,56.3985 199.5749,56.4495 199.9269,56.5485 C200.0519,56.5745 200.1649,56.6125 200.2659,56.6615 L200.4919,56.7375 L200.3409,57.1515 C199.9139,56.9255 199.3999,56.8125 198.7969,56.8125 C197.7679,56.8125 196.9639,57.1015 196.3869,57.6785 C195.8349,58.2055 195.5589,58.9335 195.5589,59.8625 C195.5589,60.6905 195.8219,61.3685 196.3499,61.8955 C196.9009,62.4485 197.6679,62.7245 198.6459,62.7245 C199.3489,62.7245 199.9269,62.6115 200.3789,62.3845 L200.5289,62.7615 Z" id="Fill-23" fill="#4C4948" mask="url(#mask-2)"></path>
                <polygon id="Fill-24" fill="#4C4948" mask="url(#mask-2)" points="201.975 63.0251 202.427 63.0251 202.427 56.1341 201.975 56.1341"></polygon>
                <path d="M207.7508,62.197 C208.1518,61.82 208.3538,61.318 208.3538,60.69 C208.3538,60.188 208.1898,59.737 207.8638,59.335 C207.5118,58.884 207.0218,58.657 206.3958,58.657 C205.7678,58.657 205.2778,58.871 204.9268,59.298 C204.6008,59.674 204.4378,60.151 204.4378,60.728 C204.4378,61.356 204.6258,61.858 205.0018,62.234 C205.3788,62.587 205.8308,62.761 206.3578,62.761 C206.9098,62.761 207.3738,62.573 207.7508,62.197 M204.6258,62.461 C204.1738,62.009 203.9478,61.444 203.9478,60.766 C203.9478,60.012 204.1988,59.398 204.7008,58.921 C205.1528,58.494 205.7178,58.281 206.3958,58.281 C207.1228,58.281 207.7128,58.507 208.1648,58.959 C208.5918,59.411 208.8048,59.975 208.8048,60.653 C208.8048,61.08 208.7298,61.457 208.5788,61.783 C208.4538,62.084 208.2648,62.335 208.0138,62.536 C207.5378,62.937 206.9728,63.138 206.3198,63.138 C205.6418,63.138 205.0778,62.912 204.6258,62.461" id="Fill-25" fill="#4C4948" mask="url(#mask-2)"></path>
                <path d="M214.242,61.8953 C214.242,62.3233 214.267,62.6993 214.317,63.0253 L213.866,63.0253 L213.828,62.0833 L213.79,62.0833 C213.64,62.3843 213.426,62.6243 213.15,62.7993 C212.824,63.0253 212.447,63.1383 212.021,63.1383 C211.845,63.1383 211.682,63.1243 211.531,63.1003 C211.305,63.0253 211.104,62.9243 210.929,62.7993 C210.727,62.6483 210.577,62.4353 210.477,62.1593 C210.326,61.8333 210.251,61.4443 210.251,60.9923 L210.251,58.3933 L210.741,58.3933 L210.741,60.8783 C210.741,61.4573 210.84,61.8953 211.042,62.1973 C211.268,62.5483 211.631,62.7243 212.133,62.7243 C212.861,62.7243 213.376,62.3983 213.677,61.7453 C213.753,61.5443 213.79,61.3693 213.79,61.2173 L213.79,58.3933 L214.242,58.3933 L214.242,61.8953 Z" id="Fill-26" fill="#4C4948" mask="url(#mask-2)"></path>
                <path d="M219.8299,60.2761 C219.8299,60.1011 219.8169,59.9371 219.7919,59.7871 C219.6659,59.4611 219.4659,59.1971 219.1899,58.9961 C218.8889,58.7701 218.5239,58.6571 218.0979,58.6571 C217.5459,58.6571 217.1059,58.8581 216.7799,59.2591 C216.4279,59.6361 216.2529,60.1381 216.2529,60.7661 C216.2529,61.3181 216.4039,61.7831 216.7049,62.1591 C217.0309,62.5611 217.4959,62.7611 218.0979,62.7611 C218.4989,62.7611 218.8509,62.6361 219.1519,62.3841 C219.4779,62.1591 219.6919,61.8581 219.7919,61.4811 C219.8169,61.3561 219.8299,61.2171 219.8299,61.0671 L219.8299,60.2761 Z M220.3199,56.1341 L220.3199,61.8951 C220.3199,62.3231 220.3319,62.6991 220.3569,63.0251 L219.9049,63.0251 L219.9049,62.0461 L219.8679,62.0461 C219.7169,62.3731 219.4909,62.6241 219.1899,62.7991 C218.8629,63.0251 218.4619,63.1381 217.9849,63.1381 C217.3569,63.1381 216.8299,62.9121 216.4039,62.4611 C215.9759,62.0081 215.7639,61.4571 215.7639,60.8031 C215.7639,60.0761 215.9889,59.4731 216.4409,58.9961 C216.8929,58.5191 217.4449,58.2811 218.0979,58.2811 C218.5499,58.2811 218.9259,58.3811 219.2279,58.5821 C219.5039,58.7331 219.7039,58.9331 219.8299,59.1841 L219.8299,56.1341 L220.3199,56.1341 Z" id="Fill-27" fill="#4C4948" mask="url(#mask-2)"></path>
                <path d="M88.8003,57.3904 C88.5863,57.3904 88.4803,57.2734 88.4803,57.0374 C88.4803,56.8034 88.5973,56.6864 88.8323,56.6864 C89.0453,56.6864 89.1523,56.8034 89.1523,57.0374 C89.1523,57.2734 89.0453,57.3904 88.8323,57.3904 L88.8003,57.3904 Z" id="Fill-28" fill="#4C4948" mask="url(#mask-2)"></path>
                <path d="M162.5701,57.3904 C162.3561,57.3904 162.2501,57.2734 162.2501,57.0374 C162.2501,56.8034 162.3671,56.6864 162.6021,56.6864 C162.8151,56.6864 162.9221,56.8034 162.9221,57.0374 C162.9221,57.2734 162.8151,57.3904 162.6021,57.3904 L162.5701,57.3904 Z" id="Fill-29" fill="#4C4948" mask="url(#mask-2)"></path>
                <path d="M178.5574,57.3904 C178.3444,57.3904 178.2374,57.2734 178.2374,57.0374 C178.2374,56.8034 178.3544,56.6864 178.5894,56.6864 C178.8024,56.6864 178.9094,56.8034 178.9094,57.0374 C178.9094,57.2734 178.8024,57.3904 178.5894,57.3904 L178.5574,57.3904 Z" id="Fill-30" fill="#4C4948" mask="url(#mask-2)"></path>
                <path d="M33.3323,-0.0003 C14.9233,-0.0003 0.0003,14.9237 0.0003,33.3327 C0.0003,50.4877 12.9603,64.6157 29.6243,66.4597 C29.6283,66.4607 29.6323,66.4607 29.6353,66.4617 C29.6573,66.4637 29.6763,66.4607 29.7003,66.4567 C29.7223,66.4487 29.7393,66.4417 29.7573,66.4287 C29.7613,66.4257 29.7643,66.4237 29.7683,66.4207 C32.1983,64.6267 34.2213,62.3127 35.6723,59.6437 C35.6723,59.6437 36.7473,57.6667 36.7473,54.2817 C36.7473,50.4687 34.0583,47.2827 30.4723,46.5197 C28.3763,46.0627 26.1723,45.9277 23.9213,46.1637 L13.5993,47.2497 C13.3263,47.2777 13.0493,47.2917 12.7693,47.2917 C10.7263,47.2917 8.8623,46.5207 7.4553,45.2517 C5.6133,43.5907 4.2603,41.3987 3.6373,38.9177 C3.6373,38.9147 3.6363,38.9107 3.6353,38.9067 C3.6243,38.8637 3.6413,38.8107 3.6483,38.7957 C3.6743,38.7407 3.7303,38.7177 3.7303,38.7177 L3.7423,38.7117 L16.8143,32.7507 C17.5733,32.2817 18.1313,31.4967 18.2813,30.5467 L18.6703,28.0937 C18.8423,26.9967 19.3963,25.9547 20.3133,25.1857 L26.0513,20.3707 L26.0643,20.3587 C26.0643,20.3587 26.1313,20.3077 26.1313,20.2357 C26.1313,20.1957 26.1233,20.1467 26.0783,20.1037 L26.0693,20.0947 C23.4423,17.5267 21.9453,13.8467 22.2903,9.9017 L22.6683,5.5747 C22.6683,5.5747 22.6863,5.4227 22.8343,5.4217 C22.9433,5.4197 22.9803,5.5037 22.9963,5.5477 C22.9993,5.5577 23.0023,5.5677 23.0053,5.5787 C23.8093,8.4497 25.2193,11.0687 27.0893,13.2877 C27.0923,13.2917 27.0953,13.2957 27.0983,13.2987 C27.1703,13.3787 27.2323,13.3667 27.2803,13.3577 C27.3443,13.3347 27.3913,13.2837 27.3973,13.2117 C27.3983,13.2037 27.3993,13.1957 27.4003,13.1877 C27.7063,10.4377 28.8913,7.9507 30.6683,6.0177 L30.6793,6.0057 C30.7493,5.9297 30.8483,5.9607 30.8563,5.9637 C30.8803,5.9747 30.9393,6.0007 30.9613,6.0837 C30.9623,6.0887 30.9633,6.0937 30.9643,6.0987 C31.4703,8.5147 33.0763,10.5267 35.2353,11.5887 C37.2693,12.5147 38.8443,14.2747 39.5223,16.4337 C39.5243,16.4377 39.5253,16.4417 39.5263,16.4467 C39.5383,16.4827 39.5613,16.5117 39.5863,16.5317 C39.6083,16.5457 39.6333,16.5617 39.6703,16.5647 C39.6743,16.5647 39.6783,16.5647 39.6833,16.5657 C46.7683,17.1847 53.2173,20.0197 58.3343,24.3727 L58.3483,24.3847 C58.4323,24.4557 58.4053,24.5487 58.3973,24.5697 C58.3563,24.6687 58.2653,24.6757 58.2653,24.6757 L58.2563,24.6777 L54.0323,25.4567 L53.9983,25.4637 C53.9983,25.4637 53.8663,25.4877 53.8663,25.6337 C53.8663,25.6487 53.8743,25.7487 53.9893,25.7867 C54.0043,25.7907 54.0193,25.7927 54.0333,25.7967 C59.0833,26.9137 63.4383,29.8817 66.3493,33.9517 C66.3523,33.9557 66.3543,33.9587 66.3573,33.9627 C66.4213,34.0427 66.4933,34.0367 66.5393,34.0267 C66.5393,34.0267 66.6563,33.9977 66.6603,33.8677 C66.6603,33.8627 66.6603,33.8577 66.6603,33.8527 C66.6633,33.6797 66.6643,33.5057 66.6643,33.3327 C66.6643,14.9237 51.7413,-0.0003 33.3323,-0.0003" id="Fill-31" fill="#DB450D" mask="url(#mask-2)"></path>
                <polygon id="Fill-32" fill="#4C4948" mask="url(#mask-2)" points="79.802 42.3061 92.608 42.3061 92.608 41.0781 79.802 41.0781"></polygon>
                <polygon id="Fill-33" fill="#4C4948" mask="url(#mask-2)" points="85.502 47.9801 86.896 47.9801 86.896 24.9111 85.502 24.9111"></polygon>
                <polygon id="Fill-34" fill="#4C4948" mask="url(#mask-2)" points="174.406 28.6621 193.9 28.6621 193.9 27.2681 174.406 27.2681"></polygon>
                <polygon id="Fill-35" fill="#4C4948" mask="url(#mask-2)" points="198.519 27.2771 220.348 27.2771 220.348 25.7301 198.519 25.7301"></polygon>
                <polygon id="Fill-36" fill="#4C4948" mask="url(#mask-2)" points="195.726 35.6571 222.909 35.6571 222.909 34.1101 195.726 34.1101"></polygon>
                <polygon id="Fill-37" fill="#4C4948" mask="url(#mask-2)" points="176.082 33.2181 192.181 33.2181 192.181 31.8231 176.082 31.8231"></polygon>
                <polygon id="Fill-38" fill="#4C4948" mask="url(#mask-2)" points="176.082 37.8581 192.181 37.8581 192.181 36.4641 176.082 36.4641"></polygon>
                <polygon id="Fill-39" fill="#4C4948" mask="url(#mask-2)" points="176.398 42.4611 191.91 42.4611 191.91 41.1061 176.398 41.1061"></polygon>
                <polygon id="Fill-40" fill="#4C4948" mask="url(#mask-2)" points="176.398 49.6191 191.91 49.6191 191.91 48.2641 176.398 48.2641"></polygon>
                <polygon id="Fill-41" fill="#4C4948" mask="url(#mask-2)" points="170.045 50.4151 171.439 50.4151 171.439 29.5691 170.045 29.5691"></polygon>
                <polygon id="Fill-42" fill="#4C4948" mask="url(#mask-2)" points="146.867 46.3151 148.261 46.3151 148.261 30.8861 146.867 30.8861"></polygon>
                <polygon id="Fill-43" fill="#4C4948" mask="url(#mask-2)" points="141.373 45.6301 142.767 45.6301 142.767 30.9311 141.373 30.9311"></polygon>
                <polygon id="Fill-44" fill="#4C4948" mask="url(#mask-2)" points="154.345 46.3151 155.739 46.3151 155.739 30.8861 154.345 30.8861"></polygon>
                <polygon id="Fill-45" fill="#4C4948" mask="url(#mask-2)" points="161.693 46.3151 163.087 46.3151 163.087 30.8861 161.693 30.8861"></polygon>
                <polygon id="Fill-46" fill="#4C4948" mask="url(#mask-2)" points="176.397 49.5681 177.791 49.5681 177.791 41.1061 176.397 41.1061"></polygon>
                <polygon id="Fill-47" fill="#4C4948" mask="url(#mask-2)" points="183.617 28.0501 185.011 28.0501 185.011 23.4571 183.617 23.4571"></polygon>
                <polygon id="Fill-48" fill="#4C4948" mask="url(#mask-2)" points="190.515 49.5681 191.909 49.5681 191.909 41.1061 190.515 41.1061"></polygon>
                <polygon id="Fill-49" fill="#4C4948" mask="url(#mask-2)" points="119.663 43.6501 121.057 43.6501 121.057 33.0491 119.663 33.0491"></polygon>
                <polygon id="Fill-50" fill="#4C4948" mask="url(#mask-2)" points="127.528 43.6501 128.922 43.6501 128.922 33.0491 127.528 33.0491"></polygon>
                <polygon id="Fill-51" fill="#4C4948" mask="url(#mask-2)" points="90.75 36.2821 92.144 36.2821 92.144 24.9111 90.75 24.9111"></polygon>
                <polygon id="Fill-52" fill="#4C4948" mask="url(#mask-2)" points="117.7271 25.407 110.1271 33.824 109.1431 32.837 116.7431 24.421"></polygon>
                <polygon id="Fill-53" fill="#4C4948" mask="url(#mask-2)" points="123.699 23.8445 118.355 32.4445 117.132 31.7755 122.477 23.1745"></polygon>
                <polygon id="Fill-54" fill="#4C4948" mask="url(#mask-2)" points="174.1416 24.1882 167.1266 38.3932 165.9046 37.7232 172.9196 23.5182"></polygon>
                <polygon id="Fill-55" fill="#4C4948" mask="url(#mask-2)" points="96.4168 28.8376 101.7798 33.9176 100.8168 34.9246 95.4538 29.8446"></polygon>
                <polygon id="Fill-56" fill="#4C4948" mask="url(#mask-2)" points="137.5408 48.6824 141.9038 44.4024 142.8848 45.3924 138.5218 49.6724"></polygon>
                <polygon id="Fill-57" fill="#4C4948" mask="url(#mask-2)" points="150.0496 27.0691 157.0906 31.0831 155.1366 31.5521 149.3426 28.2701"></polygon>
                <polygon id="Fill-58" fill="#4C4948" mask="url(#mask-2)" points="110.7066 23.7859 114.1176 28.6229 112.9786 29.4259 109.5676 24.5899"></polygon>
                <polygon id="Fill-59" fill="#4C4948" mask="url(#mask-2)" points="80.101 36.2821 81.495 36.2821 81.495 24.9111 80.101 24.9111"></polygon>
                <polygon id="Fill-60" fill="#4C4948" mask="url(#mask-2)" points="80.101 26.1381 92.144 26.1381 92.144 24.9101 80.101 24.9101"></polygon>
                <polygon id="Fill-61" fill="#4C4948" mask="url(#mask-2)" points="94.455 26.3391 105.719 26.3391 105.719 25.1111 94.455 25.1111"></polygon>
                <polygon id="Fill-62" fill="#4C4948" mask="url(#mask-2)" points="120.541 28.5741 134.939 28.5741 134.939 27.3461 120.541 27.3461"></polygon>
                <polygon id="Fill-63" fill="#4C4948" mask="url(#mask-2)" points="146.494 26.1671 162.872 26.1671 162.872 24.9391 146.494 24.9391"></polygon>
                <polygon id="Fill-64" fill="#4C4948" mask="url(#mask-2)" points="148.084 32.1141 162.142 32.1141 162.142 30.8861 148.084 30.8861"></polygon>
                <polygon id="Fill-65" fill="#4C4948" mask="url(#mask-2)" points="148.084 36.7981 162.142 36.7981 162.142 35.5701 148.084 35.5701"></polygon>
                <polygon id="Fill-66" fill="#4C4948" mask="url(#mask-2)" points="137.864 32.1581 142.767 32.1581 142.767 30.9301 137.864 30.9301"></polygon>
                <polygon id="Fill-67" fill="#4C4948" mask="url(#mask-2)" points="138.551 26.1671 142.767 26.1671 142.767 24.9391 138.551 24.9391"></polygon>
                <polygon id="Fill-68" fill="#4C4948" mask="url(#mask-2)" points="148.084 41.4831 162.142 41.4831 162.142 40.2551 148.084 40.2551"></polygon>
                <polyline id="Fill-69" fill="#4C4948" mask="url(#mask-2)" points="147.6385 49.6199 147.6385 48.3919 165.0925 48.3919 165.0925 49.6199"></polyline>
                <polygon id="Fill-70" fill="#4C4948" mask="url(#mask-2)" points="80.101 36.5111 92.144 36.5111 92.144 35.1631 80.101 35.1631"></polygon>
                <polygon id="Fill-71" fill="#4C4948" mask="url(#mask-2)" points="93.53 35.6951 106.514 35.6951 106.514 34.3471 93.53 34.3471"></polygon>
                <polygon id="Fill-72" fill="#4C4948" mask="url(#mask-2)" points="119.664 34.3971 128.879 34.3971 128.879 33.0491 119.664 33.0491"></polygon>
                <polygon id="Fill-73" fill="#4C4948" mask="url(#mask-2)" points="119.664 43.6501 128.879 43.6501 128.879 42.3021 119.664 42.3021"></polygon>
                <path d="M113.8191,31.5603 L113.8191,46.8143 C113.8191,48.7063 112.3051,48.7853 112.3051,48.7853 L109.5401,48.7853 L109.5401,50.1323 L112.7771,50.1323 C112.7771,50.1323 115.2131,50.0963 115.2131,46.9643 L115.2131,31.5603 L113.8191,31.5603 Z" id="Fill-74" fill="#4C4948" mask="url(#mask-2)"></path>
                <path d="M99.4349,35.1628 L99.4349,47.5478 C99.4349,48.7858 97.9209,48.7848 97.9209,48.7848 L95.0829,48.7848 L95.0829,50.1328 L98.3929,50.1328 C98.3929,50.1328 100.8289,50.2258 100.8289,47.6978 L100.8289,35.1628 L99.4349,35.1628 Z" id="Fill-75" fill="#4C4948" mask="url(#mask-2)"></path>
                <path d="M133.5447,27.4919 L133.5447,45.4129 C133.5447,48.6999 131.1567,48.7849 131.1567,48.7849 L124.6677,48.7849 L124.6677,50.1329 L131.6297,50.1329 C131.6297,50.1329 134.9387,50.1609 134.9387,45.5629 L134.9387,27.4919 L133.5447,27.4919 Z" id="Fill-76" fill="#4C4948" mask="url(#mask-2)"></path>
                <polygon id="Fill-77" fill="#4C4948" mask="url(#mask-2)" points="80.101 31.2991 92.144 31.2991 92.144 30.0711 80.101 30.0711"></polygon>
                <polygon id="Fill-78" fill="#4C4948" mask="url(#mask-2)" points="79.106 48.8091 93.006 48.8091 93.006 47.5811 79.106 47.5811"></polygon>
                <polygon id="Fill-79" fill="#4C4948" mask="url(#mask-2)" points="104.9849 25.4548 98.8509 32.4628 99.9609 32.4628 99.9609 33.4658 99.9829 33.4658 105.7189 26.9118 105.7189 25.4548"></polygon>
                <polygon id="Fill-80" fill="#4C4948" mask="url(#mask-2)" points="106.5142 34.3474 105.5572 34.3474 103.3942 39.7804 104.6862 40.3014 106.5142 35.7114"></polygon>
                <polygon id="Fill-81" fill="#4C4948" mask="url(#mask-2)" points="162.8724 25.0701 154.1594 29.8411 154.8574 30.9511 162.8724 26.5641"></polygon>
                <path d="M142.7256,44.6638 C142.7256,44.6638 144.1346,47.7318 147.7316,48.3958 L147.7736,49.6128 C147.7736,49.6128 144.6466,49.7438 142.0686,45.9028 L142.7256,44.6638 Z" id="Fill-82" fill="#4C4948" mask="url(#mask-2)"></path>
                <path d="M112.878,29.239 C112.878,29.239 113.58,30.113 113.829,31.639 L115.215,31.639 C115.215,31.639 114.975,29.486 113.787,28.134 L112.831,29.132 L112.878,29.239 Z" id="Fill-83" fill="#4C4948" mask="url(#mask-2)"></path>
                <polygon id="Fill-84" fill="#4C4948" mask="url(#mask-2)" points="199.4209 49.2761 206.4349 35.0701 205.0349 34.1601 198.5159 47.7391 198.5159 49.2761"></polygon>
                <polygon id="Fill-85" fill="#4C4948" mask="url(#mask-2)" points="114.6121 36.0945 108.7991 42.0335 109.7831 43.0205 114.6121 38.0865"></polygon>
                <polygon id="Fill-86" fill="#4C4948" mask="url(#mask-2)" points="220.2454 47.7312 220.2444 47.7282 220.2444 47.7172 217.0354 40.1692 215.5654 40.9902 218.6584 47.7282 198.5194 47.7282 198.5194 49.2762 220.2454 49.2762"></polygon>
            </g>
        </g>
    </g>
</svg>