<svg xmlns="http://www.w3.org/2000/svg" version="1.1" x="0" y="0" viewBox="0 0 512 512" xml:space="preserve"><style>.s0{fill:#FFC477;}.s1{fill:#FFB655;}.s2{fill:#FFDAAA;}.s3{fill:#AA6100;}.s4{fill:#FF0C38;}.s5{fill:#D80027;}.s6{fill:#FF3F62;}</style><circle cx="376.2" cy="237.7" r="29.6" fill="#FFC477"/><circle cx="135.8" cy="237.7" r="29.6" fill="#FFB655"/><path d="M165.4 237.7c0-16.3-13.3-29.6-29.6-29.6 -7 0-13.4 2.4-18.5 6.5 -0.4 12.7 0.6 34.3 10.6 51.6 2.5 0.7 5.1 1.1 7.9 1.1C152.2 267.3 165.4 254 165.4 237.7z" fill="#FF9811"/><path d="M346.6 237.7c0-16.3 13.3-29.6 29.6-29.6 7 0 13.4 2.4 18.5 6.5 0.4 12.7-0.6 34.3-10.6 51.6 -2.5 0.7-5.1 1.1-7.9 1.1C359.8 267.3 346.6 254 346.6 237.7z" fill="#FFB655"/><path d="M295.7 392.4v-64.5h-79.4V392.4l-85.7 23.3c-14.2 3.9-24.1 16.8-24.1 31.5v25.9c0 17.3 14 31.3 31.3 31.3H256h118.1c17.3 0 31.3-14 31.3-31.3v-25.9c0-14.7-9.9-27.7-24.1-31.5L295.7 392.4z" fill="#FFDAAA"/><path d="M295.7 352.2c0 0-4.9 44.8-79.4 40.2v-64.5h79.4V352.2z" fill="#FFB655"/><path d="M376.5 151.4c0-66.7-54.2-120.7-120.9-120.5 -66.6 0.2-120.1 55.2-120.1 121.8v88.3c0 38.4 20 74 52.7 94l44.6 27.3c14.2 8.7 32.1 8.7 46.4 0l44.6-27.3c32.7-20 52.7-55.6 52.7-94v-89.5C376.5 151.4 376.5 151.4 376.5 151.4z" fill="#FFDAAA"/><path d="M272.5 353.8l-44.6-27.3c-32.7-20-52.7-55.6-52.7-94V144.2c0-51 31.4-95.2 76-113.2 -64.5 2.6-115.7 56.6-115.7 121.7v88.3c0 38.4 20 74 52.7 94l44.6 27.3c14.2 8.7 32.1 8.7 46.4 0l5.5-3.4C280.5 357.9 276.4 356.2 272.5 353.8z" fill="#FFC477"/><path d="M210.1 188.7c0 0-32.4 40.2-74.6 39.1 0 0.2-21.2-32.4 0-75.1h74.6L210.1 188.7 210.1 188.7z" fill="#DDB200"/><path d="M175.2 217.2v-64.5h-39.7c-21.2 42.7 0 75.3 0 75.1C150.2 228.1 163.8 223.5 175.2 217.2z" fill="#CCA400"/><path d="M197.1 164.8c0 0-5.5 46.9 38.4 64.9 10.7 4.4 22.9-0.6 27.5-11.1 6.2-14.3 14.4-32.6 14.4-32.6l99.2 51.7c0 0 22.2-41.5 0-72.8h-179.4V164.8z" fill="#EEBF00"/><circle cx="204.6" cy="235.3" r="10" fill="#AA6100"/><circle cx="307.4" cy="235.3" r="10" fill="#AA6100"/><path d="M331.8 36.2l-58.5-10.9h-34.7l-58.5 10.9c-18.7 3.5-33.6 17.8-37.7 36.4L123.3 158h265.3l-19.1-85.4C365.4 54 350.5 39.7 331.8 36.2z" fill="#FF0C38"/><polygon points="238.7 25.3 189.8 34.4 189.8 158 322.2 158 322.2 34.4 273.3 25.3 " fill="#D80027"/><path d="M271.9 7.5H240.1c-11.1 0-20.2 9.1-20.2 20.2v137.1h72.4v-14.1V27.7C292.2 16.6 283.1 7.5 271.9 7.5z" fill="#FF3F62"/><path d="M273.7 7.6c-0.6-0.1-1.2-0.1-1.8-0.1h-31.9c-11.1 0-20.2 9.1-20.2 20.2v137.1h35.5V27.7C255.3 17.2 263.4 8.5 273.7 7.6z" fill="#FF0C38"/><path d="M407 178H105c-7.7 0-14-6.3-14-14l0 0c0-7.7 6.3-14 14-14h302c7.7 0 14 6.3 14 14l0 0C421 171.7 414.7 178 407 178z" fill="#FF728B"/><path d="M172 164c0-7.7 6.3-14 14-14h-81c-7.7 0-14 6.3-14 14s6.3 14 14 14h81C178.3 178 172 171.7 172 164z" fill="#FF3F62"/><path d="M256 121L256 121c-7.7 0-14-6.3-14-14V65.7c0-7.7 6.3-14 14-14l0 0c7.7 0 14 6.3 14 14V107C270 114.7 263.7 121 256 121z" fill="#FFE477"/><path d="M381.4 415.7l-72.8-19.8C297.9 412.7 278.4 424 256 424s-41.9-11.3-52.6-28.1l-72.8 19.8c-14.2 3.9-24.1 16.8-24.1 31.5v25.9c0 17.3 14 31.3 31.3 31.3H256h118.1c17.3 0 31.3-14 31.3-31.3v-25.9C405.5 432.5 395.6 419.6 381.4 415.7z" fill="#D1E7F8"/><path d="M189.7 504.5h-35.3v-96.2c0-6.8 5.5-12.4 12.4-12.4h10.6c6.8 0 12.4 5.5 12.4 12.4L189.7 504.5 189.7 504.5z" fill="#FF0C38"/><path d="M180.8 396.4c-1.1-0.3-2.3-0.5-3.5-0.5h-10.6c-6.8 0-12.4 5.5-12.4 12.4V504.5H172v-96.2C172 402.7 175.7 397.9 180.8 396.4z" fill="#D80027"/><path d="M357.7 504.5h-35.3v-96.2c0-6.8 5.5-12.4 12.4-12.4h10.6c6.8 0 12.4 5.5 12.4 12.4L357.7 504.5 357.7 504.5z" fill="#FF0C38"/><path d="M348.8 396.4c-1.1-0.3-2.3-0.5-3.5-0.5h-10.6c-6.8 0-12.4 5.5-12.4 12.4V504.5H340v-96.2C340 402.7 343.7 397.9 348.8 396.4z" fill="#D80027"/><path d="M275.8 299.1c-11.7 8.8-28 8.8-39.6 0 -3.3-2.5-8-1.8-10.5 1.5 -2.5 3.3-1.8 8 1.5 10.5 8.5 6.4 18.7 9.6 28.8 9.6 10.2 0 20.3-3.2 28.8-9.6 3.3-2.5 4-7.2 1.5-10.5C283.8 297.3 279.1 296.6 275.8 299.1zM428.5 164c0-11.9-9.6-21.5-21.5-21.5h-14.1l-16-71.5c-4.8-21.5-22-38.1-43.7-42.1l-34-6.3C296.7 9.7 285.5 0 271.9 0h-31.9c-13.5 0-24.8 9.7-27.2 22.5l-34 6.3c-21.7 4-38.8 20.6-43.7 42.1l-16 71.5H105c-11.9 0-21.5 9.6-21.5 21.5s9.6 21.5 21.5 21.5h13.8c-0.4 7 0 13.3 0.8 18.8 -12.7 6.1-20.9 18.9-20.9 33.4 0 19.5 15.1 35.5 34.2 37 2.5 8.3 5.8 16.3 10.1 23.9 9.8 17.5 24.1 32.4 41.2 42.9l24.6 15v30.3l-20 5.4c-3.3-2.3-7.2-3.7-11.5-3.7H166.7c-9.3 0-17 6.4-19.2 15l-18.8 5.1c-17.4 4.8-29.6 20.7-29.6 38.8v25.9c0 21.4 17.4 38.8 38.8 38.8H374.1c21.4 0 38.8-17.4 38.8-38.8v-25.9c0-18.1-12.2-34-29.6-38.8l-18.8-5.1c-2.2-8.6-10-15-19.2-15h-10.6c-4.3 0-8.3 1.4-11.5 3.7l-20-5.4v-30.3l24.6-15c17.1-10.5 31.4-25.3 41.2-42.9s15-37.4 15-57.5c0 0 4.7-5.7 6.7-20 4.7 4.1 7.6 10.2 7.6 16.7 0 5-1.6 9.8-4.8 13.7 -2.6 3.2-2 8 1.2 10.5 1.4 1.1 6.8 3.4 10.5-1.2 5.2-6.4 8-14.7 8-23 0-13.8-7.8-26.4-19.7-32.8 0.5-6.2 0.4-12.7-0.7-19.4H407C418.9 185.5 428.5 175.9 428.5 164zM240.1 15h31.9c7 0 12.7 5.7 12.7 12.7v89.7c0 4.1 3.4 7.5 7.5 7.5s7.5-3.4 7.5-7.5V37.9l30.8 5.7c15.8 2.9 28.3 15 31.8 30.7l15.3 68.2H227.3V27.7C227.3 20.7 233 15 240.1 15zM149.8 74.3c3.5-15.7 16-27.7 31.8-30.7l30.8-5.7V142.5H134.5L149.8 74.3zM98.5 164c0-3.6 2.9-6.5 6.5-6.5h302c3.6 0 6.5 2.9 6.5 6.5s-2.9 6.5-6.5 6.5H105C101.4 170.5 98.5 167.6 98.5 164zM206.2 185.5h63.1c-2.5 5.5-8.5 19.1-13.3 30.1 -2.9 6.8-10.9 10-17.7 7.2C217.9 214.4 209.5 199.1 206.2 185.5zM190.9 185.5c0.6 3 1.4 6.2 2.5 9.5 -11.1 9.9-30.8 24.1-53.5 25.2 -2.7-5.6-7.4-18.2-6.1-34.7H190.9zM113.7 237.7c0-7.5 3.7-14.2 9.7-18.3 1.2 3.3 2.9 7.4 4.6 10.4v11.1c0 6 0.5 11.9 1.4 17.8C120.3 256 113.7 247.6 113.7 237.7zM166.7 403.4h10.6c2.7 0 4.9 2.2 4.9 4.9v43.1c0 4.1 3.4 7.5 7.5 7.5s7.5-3.4 7.5-7.5v-43.1c0-1-0.1-1.9-0.2-2.8l3.4-0.9C213.1 421.3 234 431.5 256 431.5c22 0 42.9-10.2 55.7-27l3.4 0.9c-0.1 0.9-0.2 1.9-0.2 2.8V497H197.2v-15.7c0-4.1-3.4-7.5-7.5-7.5s-7.5 3.4-7.5 7.5V497h-20.3v-88.7C161.8 405.6 164 403.4 166.7 403.4zM114 473.2v-25.9c0-11.3 7.6-21.3 18.6-24.3l14.2-3.9V497h-9C124.7 497 114 486.3 114 473.2zM398 447.3v25.9c0 13.1-10.7 23.8-23.8 23.8h-9v-77.9l14.2 3.9C390.3 425.9 398 435.9 398 447.3zM334.7 403.4h10.6c2.7 0 4.9 2.2 4.9 4.9V497h-20.3v-88.7C329.8 405.6 332 403.4 334.7 403.4zM293.7 399.6l1.9 0.5C285.6 410.4 271.2 416.5 256 416.5c-15.2 0-29.6-6.1-39.6-16.3l1.9-0.5c3.3-0.9 5.5-3.9 5.5-7.2v-26.8l5.1 3.1c8.4 5.1 17.7 7.7 27.1 7.7 9.4 0 18.7-2.6 27.1-7.7l5.1-3.1V392.4C288.2 395.8 290.5 398.7 293.7 399.6zM319.9 328.6l-44.6 27.3c-11.9 7.3-26.7 7.3-38.5 0l-44.6-27.3c-30.3-18.5-49.1-52.1-49.1-87.6v-5.9c13.8-1.1 34.4-6.6 56.9-25.7 6.4 10.5 16.5 20.7 32.7 27.4 14.3 5.9 31-0.9 37.2-15.1 3.7-8.5 8.2-18.6 11.1-25.3l88.1 45.9C368.6 277.2 349.8 310.3 319.9 328.6zM372.9 227.3L292.6 185.5h85C381.2 201.7 376.4 218.3 372.9 227.3zM256 128.5c11.9 0 21.5-9.6 21.5-21.5V65.7c0-11.9-9.6-21.5-21.5-21.5s-21.5 9.6-21.5 21.5V107C234.5 118.9 244.1 128.5 256 128.5zM249.5 65.7c0-3.6 2.9-6.5 6.5-6.5 3.6 0 6.5 2.9 6.5 6.5V107c0 3.6-2.9 6.5-6.5 6.5s-6.5-2.9-6.5-6.5V65.7z"/></svg>